<svg xmlns="http://www.w3.org/2000/svg" width="1200" height="300" viewBox="0 0 1200 300" role="img" aria-labelledby="title desc">
  <title id="title">Data Culina Academy</title>
  <desc id="desc">A branded banner for Culina Academy public framework documentation using the Data Culina logo.</desc>
  <defs>
    <pattern id="grid" width="40" height="40" patternUnits="userSpaceOnUse">
      <path d="M 40 0 L 0 0 0 40" fill="none" stroke="#f47b20" stroke-width="1.2" opacity="0.14"/>
    </pattern>
  </defs>
  <rect width="1200" height="300" fill="#f7f1e6"/>
  <rect width="1200" height="300" fill="url(#grid)"/>
  <rect x="0" y="0" width="1200" height="12" fill="#073f2c"/>
  <rect x="0" y="288" width="1200" height="12" fill="#f47b20"/>
  <circle cx="1110" cy="70" r="90" fill="#073f2c" opacity="0.08"/>
  <circle cx="1144" cy="106" r="54" fill="#f47b20" opacity="0.14"/>
  <g transform="translate(64 46) scale(0.44)">
<path d="M 436.0 68.0 L 435.0 69.0 L 435.0 74.0 L 436.0 75.0 L 444.0 76.0 L 449.0 82.0 L 449.0 178.0 L 450.0 179.0 L 450.0 188.0 L 449.0 189.0 L 449.0 197.0 L 448.0 199.0 L 443.0 203.0 L 435.0 204.0 L 435.0 210.0 L 505.0 210.0 L 506.0 209.0 L 516.0 208.0 L 517.0 207.0 L 520.0 207.0 L 529.0 204.0 L 537.0 200.0 L 548.0 192.0 L 557.0 182.0 L 562.0 174.0 L 562.0 172.0 L 566.0 165.0 L 566.0 162.0 L 568.0 158.0 L 569.0 145.0 L 570.0 144.0 L 569.0 124.0 L 568.0 123.0 L 568.0 119.0 L 565.0 110.0 L 559.0 98.0 L 551.0 88.0 L 543.0 81.0 L 530.0 74.0 L 521.0 71.0 L 518.0 71.0 L 517.0 70.0 L 513.0 70.0 L 512.0 69.0 L 500.0 69.0 L 499.0 68.0 Z
    M 378.0 102.0 L 373.0 96.0 L 362.0 86.0 L 353.0 80.0 L 343.0 75.0 L 331.0 71.0 L 326.0 71.0 L 325.0 70.0 L 303.0 70.0 L 302.0 71.0 L 298.0 71.0 L 292.0 73.0 L 290.0 71.0 L 284.0 58.0 L 276.0 47.0 L 265.0 36.0 L 257.0 30.0 L 244.0 23.0 L 242.0 23.0 L 233.0 19.0 L 224.0 18.0 L 223.0 17.0 L 215.0 17.0 L 214.0 16.0 L 195.0 17.0 L 194.0 18.0 L 186.0 19.0 L 174.0 23.0 L 160.0 30.0 L 151.0 36.0 L 145.0 41.0 L 145.0 42.0 L 142.0 44.0 L 133.0 54.0 L 127.0 63.0 L 122.0 73.0 L 120.0 72.0 L 116.0 72.0 L 115.0 71.0 L 111.0 71.0 L 110.0 70.0 L 86.0 70.0 L 85.0 71.0 L 81.0 71.0 L 80.0 72.0 L 77.0 72.0 L 68.0 75.0 L 58.0 80.0 L 48.0 87.0 L 33.0 103.0 L 28.0 111.0 L 20.0 129.0 L 20.0 132.0 L 17.0 141.0 L 17.0 146.0 L 16.0 147.0 L 16.0 168.0 L 17.0 169.0 L 18.0 180.0 L 21.0 189.0 L 23.0 192.0 L 23.0 194.0 L 27.0 202.0 L 37.0 216.0 L 44.0 223.0 L 53.0 230.0 L 68.0 238.0 L 77.0 241.0 L 80.0 241.0 L 81.0 242.0 L 86.0 242.0 L 88.0 246.0 L 88.0 259.0 L 89.0 260.0 L 89.0 272.0 L 90.0 273.0 L 90.0 290.0 L 91.0 291.0 L 91.0 325.0 L 118.0 325.0 L 119.0 324.0 L 119.0 312.0 L 115.0 310.0 L 107.0 310.0 L 106.0 309.0 L 106.0 292.0 L 105.0 291.0 L 105.0 277.0 L 104.0 276.0 L 104.0 263.0 L 103.0 262.0 L 102.0 231.0 L 100.0 229.0 L 90.0 229.0 L 89.0 228.0 L 81.0 227.0 L 75.0 225.0 L 62.0 218.0 L 46.0 203.0 L 41.0 196.0 L 36.0 186.0 L 36.0 184.0 L 34.0 181.0 L 33.0 174.0 L 32.0 173.0 L 32.0 169.0 L 31.0 168.0 L 31.0 148.0 L 32.0 147.0 L 32.0 142.0 L 33.0 141.0 L 34.0 134.0 L 37.0 128.0 L 37.0 126.0 L 47.0 110.0 L 59.0 98.0 L 70.0 91.0 L 72.0 91.0 L 75.0 89.0 L 84.0 86.0 L 88.0 86.0 L 89.0 85.0 L 108.0 85.0 L 109.0 86.0 L 117.0 87.0 L 130.0 93.0 L 142.0 102.0 L 151.0 92.0 L 143.0 84.0 L 137.0 80.0 L 137.0 77.0 L 141.0 69.0 L 145.0 63.0 L 154.0 53.0 L 164.0 45.0 L 176.0 38.0 L 178.0 38.0 L 181.0 36.0 L 190.0 33.0 L 194.0 33.0 L 200.0 31.0 L 216.0 31.0 L 217.0 32.0 L 227.0 33.0 L 236.0 36.0 L 246.0 41.0 L 259.0 51.0 L 268.0 61.0 L 272.0 67.0 L 277.0 77.0 L 277.0 81.0 L 266.0 91.0 L 266.0 93.0 L 269.0 97.0 L 274.0 101.0 L 276.0 101.0 L 287.0 92.0 L 301.0 86.0 L 305.0 86.0 L 306.0 85.0 L 322.0 85.0 L 323.0 86.0 L 331.0 87.0 L 337.0 89.0 L 350.0 96.0 L 366.0 111.0 L 370.0 117.0 L 378.0 135.0 L 378.0 139.0 L 380.0 144.0 L 380.0 152.0 L 381.0 153.0 L 380.0 170.0 L 379.0 171.0 L 378.0 178.0 L 374.0 187.0 L 374.0 189.0 L 367.0 201.0 L 358.0 211.0 L 346.0 220.0 L 330.0 227.0 L 322.0 228.0 L 321.0 229.0 L 311.0 229.0 L 309.0 231.0 L 308.0 250.0 L 307.0 251.0 L 306.0 268.0 L 305.0 269.0 L 305.0 278.0 L 304.0 279.0 L 304.0 289.0 L 303.0 290.0 L 303.0 298.0 L 302.0 299.0 L 302.0 308.0 L 297.0 310.0 L 286.0 311.0 L 286.0 324.0 L 317.0 324.0 L 317.0 296.0 L 318.0 295.0 L 318.0 287.0 L 319.0 286.0 L 319.0 277.0 L 320.0 276.0 L 320.0 268.0 L 321.0 267.0 L 321.0 258.0 L 322.0 257.0 L 323.0 243.0 L 324.0 242.0 L 328.0 242.0 L 329.0 241.0 L 332.0 241.0 L 333.0 240.0 L 336.0 240.0 L 342.0 238.0 L 359.0 229.0 L 369.0 221.0 L 374.0 216.0 L 383.0 204.0 L 390.0 190.0 L 393.0 181.0 L 394.0 173.0 L 395.0 172.0 L 395.0 165.0 L 396.0 164.0 L 396.0 148.0 L 395.0 147.0 L 395.0 141.0 L 394.0 140.0 L 394.0 136.0 L 393.0 135.0 L 393.0 132.0 L 390.0 123.0 L 384.0 111.0 Z
    M 477.0 77.0 L 483.0 77.0 L 484.0 76.0 L 503.0 77.0 L 504.0 78.0 L 510.0 79.0 L 518.0 83.0 L 528.0 93.0 L 533.0 101.0 L 539.0 119.0 L 539.0 125.0 L 540.0 126.0 L 540.0 154.0 L 539.0 155.0 L 538.0 165.0 L 534.0 174.0 L 534.0 176.0 L 529.0 185.0 L 518.0 196.0 L 510.0 200.0 L 504.0 201.0 L 503.0 202.0 L 481.0 202.0 L 476.0 197.0 L 476.0 191.0 L 475.0 190.0 L 475.0 183.0 L 476.0 182.0 L 476.0 145.0 L 475.0 144.0 L 476.0 141.0 L 476.0 109.0 L 475.0 107.0 L 476.0 106.0 L 476.0 78.0 Z
    M 759.0 116.0 L 751.0 123.0 L 748.0 128.0 L 748.0 131.0 L 747.0 132.0 L 747.0 138.0 L 748.0 141.0 L 752.0 145.0 L 754.0 146.0 L 762.0 146.0 L 764.0 145.0 L 768.0 140.0 L 768.0 137.0 L 767.0 136.0 L 767.0 128.0 L 768.0 125.0 L 773.0 120.0 L 779.0 118.0 L 782.0 118.0 L 787.0 120.0 L 792.0 125.0 L 794.0 129.0 L 794.0 134.0 L 795.0 135.0 L 795.0 147.0 L 793.0 151.0 L 762.0 160.0 L 752.0 165.0 L 745.0 172.0 L 741.0 180.0 L 741.0 195.0 L 745.0 203.0 L 752.0 209.0 L 760.0 212.0 L 773.0 212.0 L 774.0 211.0 L 777.0 211.0 L 785.0 207.0 L 793.0 200.0 L 796.0 202.0 L 797.0 205.0 L 802.0 210.0 L 807.0 212.0 L 818.0 212.0 L 825.0 209.0 L 833.0 202.0 L 833.0 200.0 L 831.0 197.0 L 825.0 200.0 L 822.0 200.0 L 818.0 195.0 L 818.0 137.0 L 817.0 136.0 L 816.0 128.0 L 812.0 121.0 L 805.0 115.0 L 799.0 112.0 L 791.0 111.0 L 790.0 110.0 L 772.0 111.0 Z
    M 598.0 117.0 L 590.0 125.0 L 588.0 129.0 L 587.0 138.0 L 589.0 142.0 L 592.0 145.0 L 594.0 146.0 L 602.0 146.0 L 606.0 144.0 L 608.0 140.0 L 607.0 130.0 L 609.0 124.0 L 615.0 119.0 L 623.0 118.0 L 628.0 120.0 L 632.0 124.0 L 634.0 128.0 L 634.0 131.0 L 635.0 132.0 L 635.0 149.0 L 633.0 151.0 L 603.0 160.0 L 593.0 165.0 L 588.0 169.0 L 584.0 174.0 L 581.0 181.0 L 581.0 195.0 L 585.0 203.0 L 592.0 209.0 L 600.0 212.0 L 613.0 212.0 L 614.0 211.0 L 617.0 211.0 L 628.0 205.0 L 634.0 199.0 L 636.0 200.0 L 638.0 206.0 L 642.0 210.0 L 647.0 212.0 L 657.0 212.0 L 666.0 208.0 L 672.0 203.0 L 672.0 200.0 L 670.0 197.0 L 665.0 200.0 L 662.0 200.0 L 658.0 195.0 L 658.0 134.0 L 657.0 133.0 L 656.0 127.0 L 653.0 122.0 L 647.0 116.0 L 639.0 112.0 L 631.0 111.0 L 630.0 110.0 L 613.0 111.0 L 612.0 112.0 L 606.0 113.0 Z
    M 488.0 241.0 L 487.0 242.0 L 483.0 242.0 L 482.0 243.0 L 476.0 244.0 L 463.0 250.0 L 456.0 255.0 L 443.0 269.0 L 439.0 275.0 L 432.0 291.0 L 432.0 294.0 L 430.0 299.0 L 430.0 306.0 L 429.0 307.0 L 429.0 321.0 L 430.0 322.0 L 430.0 328.0 L 431.0 329.0 L 432.0 336.0 L 439.0 352.0 L 442.0 355.0 L 444.0 359.0 L 453.0 368.0 L 460.0 373.0 L 470.0 378.0 L 476.0 379.0 L 480.0 381.0 L 485.0 381.0 L 486.0 382.0 L 508.0 382.0 L 509.0 381.0 L 514.0 381.0 L 515.0 380.0 L 518.0 380.0 L 527.0 377.0 L 543.0 368.0 L 551.0 343.0 L 546.0 341.0 L 544.0 343.0 L 540.0 351.0 L 531.0 361.0 L 524.0 366.0 L 516.0 369.0 L 513.0 369.0 L 512.0 370.0 L 494.0 370.0 L 482.0 365.0 L 470.0 354.0 L 465.0 346.0 L 465.0 344.0 L 463.0 341.0 L 460.0 332.0 L 459.0 323.0 L 458.0 322.0 L 458.0 300.0 L 459.0 299.0 L 459.0 293.0 L 460.0 292.0 L 461.0 284.0 L 467.0 270.0 L 471.0 264.0 L 478.0 257.0 L 484.0 253.0 L 486.0 253.0 L 492.0 250.0 L 504.0 249.0 L 505.0 250.0 L 510.0 250.0 L 511.0 251.0 L 517.0 252.0 L 524.0 256.0 L 533.0 266.0 L 539.0 278.0 L 541.0 286.0 L 543.0 287.0 L 547.0 286.0 L 547.0 246.0 L 546.0 245.0 L 542.0 245.0 L 539.0 249.0 L 537.0 249.0 L 525.0 244.0 L 522.0 244.0 L 517.0 242.0 L 513.0 242.0 L 512.0 241.0 Z
    M 897.0 289.0 L 891.0 295.0 L 888.0 301.0 L 887.0 309.0 L 890.0 315.0 L 896.0 318.0 L 900.0 318.0 L 905.0 316.0 L 907.0 313.0 L 907.0 300.0 L 909.0 295.0 L 915.0 290.0 L 923.0 289.0 L 928.0 291.0 L 931.0 294.0 L 934.0 301.0 L 934.0 320.0 L 930.0 323.0 L 927.0 323.0 L 916.0 327.0 L 912.0 327.0 L 903.0 330.0 L 900.0 332.0 L 898.0 332.0 L 890.0 337.0 L 884.0 344.0 L 881.0 352.0 L 881.0 362.0 L 885.0 372.0 L 891.0 378.0 L 902.0 382.0 L 912.0 382.0 L 913.0 381.0 L 919.0 380.0 L 930.0 373.0 L 933.0 370.0 L 936.0 372.0 L 937.0 375.0 L 941.0 379.0 L 945.0 381.0 L 952.0 382.0 L 964.0 378.0 L 971.0 371.0 L 969.0 367.0 L 966.0 369.0 L 961.0 370.0 L 957.0 365.0 L 957.0 306.0 L 956.0 305.0 L 955.0 298.0 L 952.0 293.0 L 946.0 287.0 L 940.0 284.0 L 934.0 283.0 L 933.0 282.0 L 927.0 282.0 L 926.0 281.0 L 910.0 283.0 L 904.0 285.0 Z
    M 772.0 289.0 L 772.0 295.0 L 775.0 295.0 L 779.0 297.0 L 782.0 302.0 L 782.0 367.0 L 781.0 370.0 L 779.0 372.0 L 775.0 374.0 L 772.0 374.0 L 772.0 380.0 L 815.0 380.0 L 816.0 379.0 L 816.0 375.0 L 808.0 372.0 L 805.0 366.0 L 805.0 308.0 L 811.0 301.0 L 820.0 297.0 L 828.0 297.0 L 833.0 299.0 L 836.0 302.0 L 839.0 310.0 L 839.0 367.0 L 836.0 372.0 L 828.0 375.0 L 828.0 379.0 L 829.0 380.0 L 872.0 380.0 L 873.0 379.0 L 873.0 375.0 L 867.0 373.0 L 863.0 369.0 L 863.0 366.0 L 862.0 365.0 L 862.0 305.0 L 861.0 304.0 L 861.0 300.0 L 857.0 292.0 L 851.0 286.0 L 841.0 282.0 L 828.0 282.0 L 818.0 286.0 L 807.0 295.0 L 805.0 294.0 L 805.0 282.0 L 801.0 282.0 L 786.0 287.0 Z
    M 558.0 289.0 L 558.0 293.0 L 561.0 295.0 L 563.0 295.0 L 568.0 301.0 L 568.0 356.0 L 569.0 357.0 L 569.0 363.0 L 570.0 366.0 L 576.0 375.0 L 584.0 380.0 L 590.0 381.0 L 591.0 382.0 L 601.0 382.0 L 602.0 381.0 L 609.0 380.0 L 618.0 375.0 L 625.0 369.0 L 627.0 370.0 L 627.0 381.0 L 628.0 382.0 L 631.0 382.0 L 632.0 381.0 L 635.0 381.0 L 636.0 380.0 L 639.0 380.0 L 648.0 377.0 L 658.0 376.0 L 659.0 375.0 L 659.0 371.0 L 653.0 370.0 L 650.0 366.0 L 650.0 362.0 L 649.0 361.0 L 649.0 348.0 L 650.0 347.0 L 650.0 339.0 L 649.0 338.0 L 650.0 335.0 L 649.0 309.0 L 650.0 308.0 L 650.0 298.0 L 649.0 297.0 L 649.0 283.0 L 648.0 282.0 L 643.0 284.0 L 639.0 284.0 L 638.0 285.0 L 634.0 285.0 L 628.0 287.0 L 616.0 288.0 L 616.0 294.0 L 621.0 295.0 L 626.0 300.0 L 626.0 303.0 L 627.0 304.0 L 627.0 347.0 L 626.0 348.0 L 626.0 354.0 L 627.0 356.0 L 625.0 359.0 L 618.0 365.0 L 612.0 367.0 L 602.0 367.0 L 599.0 366.0 L 595.0 362.0 L 592.0 355.0 L 592.0 283.0 L 591.0 282.0 L 588.0 282.0 L 576.0 286.0 L 572.0 286.0 L 571.0 287.0 L 566.0 287.0 L 565.0 288.0 L 560.0 288.0 Z
    M 199.0 206.0 L 194.0 209.0 L 192.0 212.0 L 192.0 215.0 L 191.0 216.0 L 192.0 221.0 L 194.0 224.0 L 194.0 405.0 L 187.0 409.0 L 182.0 415.0 L 180.0 420.0 L 180.0 425.0 L 179.0 427.0 L 180.0 428.0 L 180.0 432.0 L 183.0 438.0 L 190.0 445.0 L 198.0 448.0 L 206.0 448.0 L 216.0 444.0 L 220.0 440.0 L 224.0 432.0 L 225.0 424.0 L 224.0 423.0 L 223.0 417.0 L 220.0 412.0 L 216.0 408.0 L 211.0 406.0 L 209.0 404.0 L 209.0 375.0 L 210.0 374.0 L 210.0 369.0 L 209.0 368.0 L 209.0 355.0 L 210.0 354.0 L 209.0 353.0 L 209.0 329.0 L 210.0 328.0 L 210.0 321.0 L 209.0 320.0 L 209.0 312.0 L 210.0 311.0 L 210.0 300.0 L 209.0 299.0 L 209.0 225.0 L 213.0 219.0 L 213.0 214.0 L 212.0 211.0 L 208.0 207.0 L 206.0 206.0 Z
    M 126.0 164.0 L 125.0 165.0 L 122.0 165.0 L 117.0 169.0 L 114.0 175.0 L 114.0 180.0 L 116.0 185.0 L 120.0 189.0 L 121.0 196.0 L 125.0 205.0 L 136.0 217.0 L 146.0 225.0 L 146.0 347.0 L 145.0 348.0 L 139.0 348.0 L 133.0 350.0 L 124.0 358.0 L 121.0 365.0 L 121.0 375.0 L 124.0 382.0 L 130.0 388.0 L 137.0 391.0 L 149.0 391.0 L 157.0 387.0 L 160.0 384.0 L 165.0 375.0 L 165.0 365.0 L 163.0 360.0 L 159.0 355.0 L 161.0 351.0 L 161.0 218.0 L 151.0 211.0 L 138.0 198.0 L 135.0 192.0 L 135.0 187.0 L 139.0 181.0 L 139.0 178.0 L 140.0 177.0 L 139.0 172.0 L 134.0 166.0 Z
    M 701.0 237.0 L 697.0 237.0 L 693.0 239.0 L 690.0 239.0 L 685.0 241.0 L 681.0 241.0 L 676.0 243.0 L 667.0 244.0 L 667.0 249.0 L 668.0 250.0 L 672.0 250.0 L 676.0 253.0 L 678.0 258.0 L 678.0 363.0 L 677.0 364.0 L 677.0 368.0 L 676.0 370.0 L 670.0 374.0 L 667.0 374.0 L 667.0 380.0 L 711.0 380.0 L 711.0 374.0 L 708.0 374.0 L 704.0 372.0 L 701.0 368.0 Z
    M 265.0 246.0 L 257.0 258.0 L 241.0 272.0 L 241.0 357.0 L 249.0 365.0 L 249.0 367.0 L 247.0 369.0 L 245.0 374.0 L 245.0 384.0 L 247.0 387.0 L 247.0 389.0 L 249.0 392.0 L 255.0 397.0 L 263.0 400.0 L 269.0 400.0 L 278.0 397.0 L 285.0 390.0 L 288.0 383.0 L 288.0 373.0 L 285.0 366.0 L 279.0 360.0 L 273.0 357.0 L 261.0 357.0 L 256.0 352.0 L 256.0 277.0 L 270.0 264.0 L 276.0 256.0 L 276.0 254.0 L 268.0 246.0 Z
    M 705.0 85.0 L 699.0 96.0 L 691.0 105.0 L 681.0 112.0 L 677.0 113.0 L 674.0 115.0 L 674.0 121.0 L 685.0 121.0 L 686.0 122.0 L 686.0 196.0 L 691.0 206.0 L 699.0 211.0 L 702.0 211.0 L 703.0 212.0 L 715.0 212.0 L 721.0 210.0 L 728.0 206.0 L 737.0 195.0 L 736.0 193.0 L 733.0 191.0 L 728.0 196.0 L 724.0 198.0 L 716.0 198.0 L 714.0 197.0 L 709.0 191.0 L 709.0 185.0 L 708.0 184.0 L 708.0 122.0 L 709.0 121.0 L 731.0 121.0 L 732.0 120.0 L 732.0 112.0 L 709.0 112.0 L 708.0 111.0 L 708.0 87.0 L 709.0 86.0 L 708.0 85.0 Z
    M 753.0 282.0 L 747.0 283.0 L 739.0 286.0 L 736.0 286.0 L 735.0 287.0 L 731.0 287.0 L 725.0 289.0 L 720.0 289.0 L 719.0 290.0 L 719.0 295.0 L 720.0 296.0 L 724.0 296.0 L 726.0 297.0 L 730.0 302.0 L 730.0 367.0 L 729.0 370.0 L 726.0 373.0 L 720.0 374.0 L 720.0 380.0 L 763.0 380.0 L 763.0 374.0 L 758.0 373.0 L 754.0 369.0 L 754.0 364.0 L 753.0 363.0 Z
    M 258.0 174.0 L 254.0 176.0 L 246.0 185.0 L 245.0 188.0 L 245.0 197.0 L 248.0 204.0 L 252.0 208.0 L 258.0 211.0 L 261.0 211.0 L 262.0 212.0 L 271.0 211.0 L 278.0 207.0 L 281.0 204.0 L 284.0 198.0 L 284.0 188.0 L 283.0 185.0 L 277.0 177.0 L 271.0 174.0 Z
    M 634.0 159.0 L 635.0 160.0 L 635.0 188.0 L 628.0 195.0 L 624.0 197.0 L 621.0 197.0 L 620.0 198.0 L 612.0 197.0 L 608.0 194.0 L 605.0 189.0 L 605.0 178.0 L 607.0 174.0 L 615.0 166.0 L 623.0 162.0 Z
    M 793.0 159.0 L 795.0 162.0 L 795.0 186.0 L 793.0 190.0 L 789.0 194.0 L 784.0 197.0 L 776.0 198.0 L 771.0 196.0 L 765.0 189.0 L 765.0 177.0 L 768.0 172.0 L 775.0 166.0 L 788.0 160.0 Z
    M 933.0 330.0 L 934.0 331.0 L 934.0 358.0 L 932.0 361.0 L 927.0 365.0 L 919.0 368.0 L 913.0 367.0 L 909.0 365.0 L 907.0 363.0 L 904.0 356.0 L 904.0 352.0 L 907.0 344.0 L 913.0 338.0 L 916.0 337.0 L 918.0 335.0 Z
    M 733.0 244.0 L 728.0 250.0 L 727.0 253.0 L 727.0 260.0 L 729.0 264.0 L 733.0 268.0 L 737.0 270.0 L 746.0 270.0 L 750.0 268.0 L 753.0 265.0 L 755.0 260.0 L 755.0 252.0 L 753.0 248.0 L 747.0 243.0 L 744.0 242.0 L 738.0 242.0 Z
    M 197.0 417.0 L 204.0 416.0 L 208.0 418.0 L 211.0 422.0 L 212.0 426.0 L 210.0 431.0 L 207.0 434.0 L 205.0 435.0 L 198.0 435.0 L 193.0 430.0 L 193.0 422.0 Z
    M 139.0 361.0 L 146.0 361.0 L 148.0 362.0 L 152.0 367.0 L 152.0 372.0 L 151.0 374.0 L 145.0 379.0 L 141.0 379.0 L 137.0 377.0 L 134.0 373.0 L 134.0 366.0 Z
    M 265.0 369.0 L 268.0 369.0 L 272.0 371.0 L 275.0 375.0 L 275.0 382.0 L 270.0 387.0 L 263.0 387.0 L 259.0 384.0 L 257.0 379.0 L 259.0 373.0 Z
    M 262.0 185.0 L 267.0 185.0 L 269.0 186.0 L 272.0 190.0 L 272.0 195.0 L 271.0 197.0 L 267.0 200.0 L 262.0 200.0 L 260.0 199.0 L 257.0 195.0 L 257.0 190.0 L 258.0 188.0 Z" fill="#073f2c" fill-rule="evenodd"/>
  </g>
  <text x="560" y="104" fill="#073f2c" font-family="Arial, Helvetica, sans-serif" font-size="42" font-weight="700">Culina Academy</text>
  <path d="M560 132H980" stroke="#f47b20" stroke-width="6" stroke-linecap="round"/>
  <text x="560" y="178" fill="#073f2c" font-family="Arial, Helvetica, sans-serif" font-size="26" font-weight="700">Public framework documentation</text>
  <text x="560" y="214" fill="#335247" font-family="Arial, Helvetica, sans-serif" font-size="21">Control plane, orchestration, data layers,</text>
  <text x="560" y="246" fill="#335247" font-family="Arial, Helvetica, sans-serif" font-size="21">configuration, and diagnostics.</text>
</svg>
